<?xml version="1.0" encoding="UTF-8"?>
<svg id="_레이어_4" data-name="레이어 4" xmlns="http://www.w3.org/2000/svg" viewBox="0 0 626.07 659.02">
  <defs>
    <style>
      .cls-1 {
        fill: none;
        stroke:rgba(105, 105, 105, 0.4);
        stroke-miterlimit: 10;
        stroke-width:8px;
      }
    </style>
  </defs>
  <path class="cls-1" d="M115.61,109.3c4.42-15.8,12.71-30.88,23.13-43.96,15.84-19.88,38.89-33.07,63.11-40.81,32.07-10.25,68.24-11.25,98.47,3.57,21.42,10.5,38.95,28.72,48.62,50.53,13.58,30.65,8.88,63.21-1.91,93.86,20.27-14.99,44.62-24.4,69.7-26.93,23.54-2.37,48.85,1.85,66.93,17.11,18.08,15.26,26.33,43.27,14.44,63.72,28.56-8.38,60.83-10.45,86.84,4.02,26.01,14.47,41.74,49.49,27.47,75.61-61.98,10.73-125.32,9.11-188.22,8.97-91.26-.21-182.52,2.76-273.57,8.89-29.21,1.97-59.4,4.14-87.02-5.59-27.62-9.73-52.13-34.86-51.23-64.13,.48-15.58,8.08-30.38,18.82-41.69,20.1-21.16,64.95-24.51,80.15-23.9-1.88-6.58-1.95-13.45-2.57-23.63-.7-11.59,1.78-37.57,6.85-55.66Z"/>
  <g>
    <line class="cls-1" x1="222.83" y1="585.04" x2="201.01" y2="636.61"/>
    <line class="cls-1" x1="327.39" y1="337.98" x2="252.24" y2="515.55"/>
    <line class="cls-1" x1="384.36" y1="514.92" x2="355.39" y2="583.38"/>
    <line class="cls-1" x1="459.24" y1="337.98" x2="402.8" y2="471.34"/>
    <line class="cls-1" x1="572.65" y1="337.98" x2="499.27" y2="511.38"/>
    <line class="cls-1" x1="143.77" y1="423.37" x2="66.97" y2="604.86"/>
    <line class="cls-1" x1="176.32" y1="346.46" x2="152.34" y2="403.12"/>
    <line class="cls-1" x1="85.76" y1="346.46" x2="57.35" y2="413.6"/>
  </g>
</svg>