<svg width="272" height="137" viewBox="0 0 272 137" fill="none" xmlns="http://www.w3.org/2000/svg">
<path d="M74.7893 4.7797C74.7893 4.7797 73.3258 1.53629 74.7893 0.398295C76.2642 -0.748557 79.8077 0.945972 79.8077 0.945972L111.8 15.7332C111.8 15.7332 114.633 17.0688 114.489 18.4716C114.375 19.5743 112.428 20.6623 112.428 20.6623L96.2969 28.3298C96.2969 28.3298 82.5875 34.7494 80.435 35.9972C78.2826 37.2451 76.3183 37.0888 74.7893 35.9972C73.768 35.2681 73.7062 33.8971 74.7893 32.1635C78.5531 26.1391 78.2422 23.5452 78.5532 17.9239C77.9259 10.2565 74.7893 4.7797 74.7893 4.7797Z" fill="url(#paint0_linear_126_3)"/>
<path d="M42.5136 55.1464C48.2172 41.3932 28.5367 41.3932 17.7124 47.8243C6.88817 54.2553 4.9744e-05 93.9634 0 114.018C-3.90568e-05 129.763 3.9361 133.299 15.7444 136.251C43.6236 143.221 77.7379 89.6103 77.7379 89.6103C77.7379 89.6103 69.8657 127.882 91.5143 133.891C114.564 140.29 140.184 95.5339 140.184 95.5339C140.184 95.5339 126.856 119.188 140.184 127.882C153.511 136.576 172.28 120.984 172.28 120.984C193.395 106.833 195.785 94.014 213.813 79.7051C221.749 73.4062 229.338 67.7729 236.564 71.4765C243.789 75.1801 240.959 83.7057 241.325 85.7065C222.807 80.6077 190.582 103.969 200.063 120.984C211.013 140.634 238.339 125.889 246.416 118.685L253.79 127.882H271.792C265.816 120.984 257.378 107.898 259.249 85.7065C261.43 59.8367 253.678 50.273 234.447 50.273C219.633 50.273 211.168 59.8367 204.819 65.9089C184.991 84.8719 165.994 116.07 155.714 109.093C142.387 100.047 216.158 46.0555 186.965 38.4411C176.493 35.7099 169.28 36.9522 159.412 41.3932C146.62 47.15 141.697 65.559 131.859 79.7051C124.971 89.6103 124.971 92.5624 116.115 100.435C110.977 105.002 104.482 110.067 100.37 108.307C95.3889 106.174 96.4344 99.47 96.4344 99.47C97.0745 86.2397 115.131 45.8562 103.323 44.8722C91.5143 43.8882 82.7904 45.0714 77.7379 53.4922C71.8338 63.3325 72.1105 63.4462 67.8977 68.9458C49.9832 92.3323 31.8393 118.553 24.6006 109.093C19.3299 102.205 36.81 68.8997 42.5136 55.1464Z" fill="url(#paint1_linear_126_3)"/>
<defs>
<linearGradient id="paint0_linear_126_3" x1="74" y1="18.4377" x2="114.494" y2="18.4377" gradientUnits="userSpaceOnUse">
<stop stop-color="#2954CC"/>
<stop offset="1" stop-color="#067FDA"/>
</linearGradient>
<linearGradient id="paint1_linear_126_3" x1="0" y1="86.9381" x2="271.792" y2="86.9381" gradientUnits="userSpaceOnUse">
<stop stop-color="#2954CC"/>
<stop offset="1" stop-color="#067FDA"/>
</linearGradient>
</defs>
</svg>
