<svg width="162" height="90" viewBox="0 0 162 90" fill="none" xmlns="http://www.w3.org/2000/svg">
<path d="M55.5653 3.49967C55.5653 3.49967 54.5172 1.12486 55.5653 0.291629C56.6215 -0.548089 59.1592 0.692635 59.1592 0.692635L82.0708 11.5198C82.0708 11.5198 84.0997 12.4977 83.9962 13.5248C83.9148 14.3322 82.5201 15.1288 82.5201 15.1288L70.968 20.7429C70.968 20.7429 61.15 25.4433 59.6085 26.357C58.067 27.2706 56.6603 27.1562 55.5653 26.357C54.8339 25.8231 54.7896 24.8192 55.5653 23.5499C58.2607 19.1389 58.0381 17.2397 58.2608 13.1238C57.8115 7.50973 55.5653 3.49967 55.5653 3.49967Z" fill="url(#paint0_linear_189_11)"/>
<path fill-rule="evenodd" clip-rule="evenodd" d="M10.5574 36.5026C17.0091 32.6392 28.7396 32.6392 25.34 40.9014C24.6274 42.6331 23.6065 44.8807 22.4668 47.3901C18.1686 56.8534 12.1799 70.0386 14.663 73.3093C18.519 78.3883 27.5666 66.347 37.0684 53.7012C38.1985 52.1972 39.335 50.6846 40.47 49.1913C42.3294 46.7448 42.7215 46.0724 44.2286 43.488C44.7568 42.5823 45.422 41.4417 46.3352 39.9076C49.3467 34.8489 54.5465 34.138 61.5848 34.7292C66.2256 35.119 63.1273 45.7992 60.3687 55.3085C58.9436 60.2211 57.6091 64.8211 57.4791 67.5285C57.4791 67.5285 56.8559 71.5556 59.8252 72.8371C62.2756 73.8947 66.1471 70.8516 69.2096 68.108C72.8515 64.8451 73.9808 62.9893 75.6793 60.1978C76.4426 58.9433 77.3209 57.4999 78.5939 55.6549C80.5286 52.8509 82.1443 49.7681 83.7149 46.7716C86.9044 40.6862 89.9075 34.9565 95.0165 32.6392C100.898 29.9713 105.198 29.225 111.439 30.8658C121.279 33.4526 111.492 44.9496 102.567 55.4346C95.7098 63.4901 89.361 70.9482 92.8123 73.3093C96.9746 76.1569 103.535 68.4209 111.019 59.5952C114.552 55.429 118.291 51.02 122.081 47.3668C122.395 47.0637 122.719 46.7461 123.052 46.4184C126.73 42.8038 131.645 37.9737 139.741 37.9737C151.203 37.9737 155.824 43.719 154.524 59.2601C153.409 72.5915 158.438 80.4529 162 84.5969H151.27L146.875 79.0715C142.061 83.3997 125.773 92.2576 119.246 80.4529C113.595 70.231 132.803 56.1971 143.84 59.2601C143.794 59.0046 143.834 58.572 143.884 58.0277C144.068 56.0116 144.394 52.4635 141.002 50.7115C136.695 48.4867 132.172 51.8708 127.442 55.6549C122.607 59.5223 119.66 63.2086 116.733 66.8681C113.155 71.3424 109.609 75.7766 102.686 80.4529C102.686 80.4529 91.4991 89.8198 83.5555 84.5969C75.612 79.3739 83.5555 65.1639 83.5555 65.1639C83.5555 65.1639 68.2849 92.0506 54.5465 88.2069C41.643 84.5969 46.3352 61.6054 46.3352 61.6054C46.3352 61.6054 26.0016 93.8115 9.38435 89.6245C2.34609 87.851 -2.32794e-05 85.727 0 76.2678C2.96498e-05 64.2204 4.10565 40.3661 10.5574 36.5026ZM137.595 76.8235C141.809 74.7563 144.339 71.2716 143.245 69.0403C142.15 66.8089 137.846 66.6759 133.632 68.7431C129.417 70.8103 126.887 74.295 127.982 76.5263C129.076 78.7576 133.38 78.8907 137.595 76.8235Z" fill="url(#paint1_linear_189_11)"/>
<defs>
<linearGradient id="paint0_linear_189_11" x1="55" y1="13.5" x2="84" y2="13.5" gradientUnits="userSpaceOnUse">
<stop stop-color="#2954CC"/>
<stop offset="1" stop-color="#067FDA"/>
</linearGradient>
<linearGradient id="paint1_linear_189_11" x1="0" y1="60" x2="162" y2="60" gradientUnits="userSpaceOnUse">
<stop stop-color="#2954CC"/>
<stop offset="1" stop-color="#067FDA"/>
</linearGradient>
</defs>
</svg>
